<svg xmlns="http://www.w3.org/2000/svg" xmlns:xlink="http://www.w3.org/1999/xlink" contentStyleType="text/css" height="894px" preserveAspectRatio="none" style="width:1069px;height:894px;background:#FFFFFF;" version="1.1" viewBox="0 0 1069 894" width="1069px" zoomAndPan="magnify"><defs/><g><g id="MenuPrincipal"><rect fill="#F1F1F1" height="50" rx="12.5" ry="12.5" style="stroke:#181818;stroke-width:0.5;" width="141.1396" x="323" y="245"/><line style="stroke:#181818;stroke-width:0.5;" x1="323" x2="464.1396" y1="271.2969" y2="271.2969"/><text fill="#000000" font-family="sans-serif" font-size="14" lengthAdjust="spacing" textLength="121.1396" x="333" y="262.9951">MENU_PRINCIPAL</text></g><g id="RevisarContenido"><rect fill="#F1F1F1" height="50" rx="12.5" ry="12.5" style="stroke:#181818;stroke-width:0.5;" width="172.5371" x="7" y="569"/><line style="stroke:#181818;stroke-width:0.5;" x1="7" x2="179.5371" y1="595.2969" y2="595.2969"/><text fill="#000000" font-family="sans-serif" font-size="14" lengthAdjust="spacing" textLength="152.5371" x="17" y="586.9951">REVISAR_CONTENIDO</text></g><g id="AprobarContenido"><rect fill="#F1F1F1" height="50" rx="12.5" ry="12.5" style="stroke:#181818;stroke-width:0.5;" width="179.7422" x="118.5" y="838"/><line style="stroke:#181818;stroke-width:0.5;" x1="118.5" x2="298.2422" y1="864.2969" y2="864.2969"/><text fill="#000000" font-family="sans-serif" font-size="14" lengthAdjust="spacing" textLength="159.7422" x="128.5" y="855.9951">APROBAR_CONTENIDO</text></g><g id="PublicarGuia"><rect fill="#F1F1F1" height="50" rx="12.5" ry="12.5" style="stroke:#181818;stroke-width:0.5;" width="131.1045" x="735" y="569"/><line style="stroke:#181818;stroke-width:0.5;" x1="735" x2="866.1045" y1="595.2969" y2="595.2969"/><text fill="#000000" font-family="sans-serif" font-size="14" lengthAdjust="spacing" textLength="111.1045" x="745" y="586.9951">PUBLICAR_GUIA</text></g><ellipse cx="393.5" cy="16" fill="#222222" rx="10" ry="10" style="stroke:#222222;stroke-width:1;"/><ellipse cx="396.5" cy="401" fill="none" rx="11" ry="11" style="stroke:#222222;stroke-width:1;"/><ellipse cx="396.5" cy="401" fill="#222222" rx="6" ry="6" style="stroke:#222222;stroke-width:1;"/><!--link *start* to MenuPrincipal--><g id="link_*start*_MenuPrincipal"><path d="M393.5,26.27 C393.5,61.88 393.5,184.6 393.5,238.74 " fill="none" id="*start*-to-MenuPrincipal" style="stroke:#181818;stroke-width:1;"/><polygon fill="#181818" points="393.5,244.74,397.5,235.74,393.5,239.74,389.5,235.74,393.5,244.74" style="stroke:#181818;stroke-width:1;"/><path d="M398.5,123 L398.5,148 L626.5,148 L626.5,133 L616.5,123 L398.5,123 " fill="#FEFFDD" style="stroke:#181818;stroke-width:0.5;"/><path d="M616.5,123 L616.5,133 L626.5,133 L616.5,123 " fill="#FEFFDD" style="stroke:#181818;stroke-width:0.5;"/><text fill="#000000" font-family="sans-serif" font-size="13" lengthAdjust="spacing" textLength="207.1875" x="404.5" y="140.0669">Director de Grado inicia sessi&#243;n</text></g><!--link MenuPrincipal to *end*--><g id="link_MenuPrincipal_*end*"><path d="M391.27,295.2 C389.97,313.12 388.87,338.11 390.5,360 C391.26,370.22 392.0535,375.8938 393.4935,383.9438 " fill="none" id="MenuPrincipal-to-*end*" style="stroke:#181818;stroke-width:1;"/><polygon fill="#181818" points="394.55,389.85,396.9027,380.2863,393.6696,384.9281,389.0277,381.695,394.55,389.85" style="stroke:#181818;stroke-width:1;"/><path d="M395.5,330 L395.5,355 L619.5,355 L619.5,340 L609.5,330 L395.5,330 " fill="#FEFFDD" style="stroke:#181818;stroke-width:0.5;"/><path d="M609.5,330 L609.5,340 L619.5,340 L609.5,330 " fill="#FEFFDD" style="stroke:#181818;stroke-width:0.5;"/><text fill="#000000" font-family="sans-serif" font-size="13" lengthAdjust="spacing" textLength="203.6392" x="401.5" y="347.0669">Director de Grado cierra sesi&#243;n</text></g><!--link MenuPrincipal to RevisarContenido--><g id="link_MenuPrincipal_RevisarContenido"><path d="M322.98,290.06 C252.47,313.24 147.67,359.84 98.5,442 C75,481.27 80.0297,531.2872 86.3697,562.8872 " fill="none" id="MenuPrincipal-to-RevisarContenido" style="stroke:#181818;stroke-width:1;"/><polygon fill="#181818" points="87.55,568.77,89.7014,559.159,86.5664,563.8677,81.8577,560.7327,87.55,568.77" style="stroke:#181818;stroke-width:1;"/><path d="M103.5,447 L103.5,472 L301.5,472 L301.5,457 L291.5,447 L103.5,447 " fill="#FEFFDD" style="stroke:#181818;stroke-width:0.5;"/><path d="M291.5,447 L291.5,457 L301.5,457 L291.5,447 " fill="#FEFFDD" style="stroke:#181818;stroke-width:0.5;"/><text fill="#000000" font-family="sans-serif" font-size="13" lengthAdjust="spacing" textLength="177.0234" x="109.5" y="464.0669">Accede a revisar contenido</text></g><!--link RevisarContenido to AprobarContenido--><g id="link_RevisarContenido_AprobarContenido"><path d="M85.02,619.19 C75.68,650.04 64.23,704.36 82.5,746 C99.88,785.62 133.2386,814.2959 163.0886,834.5959 " fill="none" id="RevisarContenido-to-AprobarContenido" style="stroke:#181818;stroke-width:1;"/><polygon fill="#181818" points="168.05,837.97,162.8573,829.6013,163.9155,835.1583,158.3585,836.2165,168.05,837.97" style="stroke:#181818;stroke-width:1;"/><path d="M87.5,716 L87.5,741 L301.5,741 L301.5,726 L291.5,716 L87.5,716 " fill="#FEFFDD" style="stroke:#181818;stroke-width:0.5;"/><path d="M291.5,716 L291.5,726 L301.5,726 L291.5,716 " fill="#FEFFDD" style="stroke:#181818;stroke-width:0.5;"/><text fill="#000000" font-family="sans-serif" font-size="13" lengthAdjust="spacing" textLength="193.6797" x="93.5" y="733.0669">Aprobar o rechazar contenido</text></g><!--link AprobarContenido to MenuPrincipal--><g id="link_AprobarContenido_MenuPrincipal"><path d="M284.91,837.88 C310.43,824.72 332.5,805.19 332.5,777 C332.5,400 332.5,400 332.5,400 C332.5,360.36 352.8214,324.7472 370.6914,299.9572 " fill="none" id="AprobarContenido-to-MenuPrincipal" style="stroke:#181818;stroke-width:1;"/><polygon fill="#181818" points="374.2,295.09,365.6923,300.0518,371.2762,299.146,372.182,304.7299,374.2,295.09" style="stroke:#181818;stroke-width:1;"/><path d="M337.5,581.5 L337.5,606.5 L567.5,606.5 L567.5,591.5 L557.5,581.5 L337.5,581.5 " fill="#FEFFDD" style="stroke:#181818;stroke-width:0.5;"/><path d="M557.5,581.5 L557.5,591.5 L567.5,591.5 L557.5,581.5 " fill="#FEFFDD" style="stroke:#181818;stroke-width:0.5;"/><text fill="#000000" font-family="sans-serif" font-size="13" lengthAdjust="spacing" textLength="209.2886" x="343.5" y="598.5669">Confirmar aprobaci&#243;n o rechazo</text></g><!--link MenuPrincipal to PublicarGuia--><g id="link_MenuPrincipal_PublicarGuia"><path d="M464.22,278.34 C525.19,286.21 606.75,300.93 628.5,325 C674.14,375.52 613.48,418.03 647.5,477 C671.15,518 710.4113,546.2671 745.3413,565.9271 " fill="none" id="MenuPrincipal-to-PublicarGuia" style="stroke:#181818;stroke-width:1;"/><polygon fill="#181818" points="750.57,568.87,744.6889,560.9698,746.2128,566.4176,740.765,567.9414,750.57,568.87" style="stroke:#181818;stroke-width:1;"/><path d="M652.5,447 L652.5,472 L878.5,472 L878.5,457 L868.5,447 L652.5,447 " fill="#FEFFDD" style="stroke:#181818;stroke-width:0.5;"/><path d="M868.5,447 L868.5,457 L878.5,457 L868.5,447 " fill="#FEFFDD" style="stroke:#181818;stroke-width:0.5;"/><text fill="#000000" font-family="sans-serif" font-size="13" lengthAdjust="spacing" textLength="205.1118" x="658.5" y="464.0669">Accede a publicar gu&#237;a docente</text></g><!--link PublicarGuia to MenuPrincipal--><g id="link_PublicarGuia_MenuPrincipal"><path d="M831.78,568.74 C866.51,538.74 914.35,486.22 887.5,442 C829.01,345.65 768.8,362.46 662.5,325 C597.13,301.96 525.117,288.5369 469.987,280.4869 " fill="none" id="PublicarGuia-to-MenuPrincipal" style="stroke:#181818;stroke-width:1;"/><polygon fill="#181818" points="464.05,279.62,472.3776,284.8784,468.9975,280.3424,473.5335,276.9623,464.05,279.62" style="stroke:#181818;stroke-width:1;"/><path d="M899.5,447 L899.5,472 L1062.5,472 L1062.5,457 L1052.5,447 L899.5,447 " fill="#FEFFDD" style="stroke:#181818;stroke-width:0.5;"/><path d="M1052.5,447 L1052.5,457 L1062.5,457 L1052.5,447 " fill="#FEFFDD" style="stroke:#181818;stroke-width:0.5;"/><text fill="#000000" font-family="sans-serif" font-size="13" lengthAdjust="spacing" textLength="142.9429" x="905.5" y="464.0669">Confirmar publicaci&#243;n</text></g><!--SRC=[dPBDJeGm54RtFCNDB4ry1PCEGqYJ6I0eReoPt2bLRyIMjE32TtBb8yoBMGh-08xEU9Vak-Uq7xKDDX8McoWfjbdEav1dRBq0jB2HgiqCAK4rLe7jStbqpIzPlWtJv2fA-2hrqLm-aqKJQjL8HQN-IBCiJvUpDAkDtlsGpehbceSk7XUS-MJMxYeIQEAMC0XkpcxXtCt5v6ZWHcb7q0egKe_-GpShCb8qsa0f8JPOQY15WX2ij9RsRyedfIhzUX2CiD29dF8Kl21fZCSVGU_ui-8EofWGqdaGJBy2OhJpfPaY1zEizCEcFWdQgSG3llpYca9F-prkxOxCa-EZvuYkj4-jFgA-qVlukxfwYCDzktz5ABMGxk0JptVcV-ypYCJi5Rm3]--></g></svg>